{"title":"Andy Griffith S03E31(1963)MPEG-4[DaScubaDude]","uid":13296828,"size":254991891,"categoryP":"video","categoryS":"tv_shows","magnet":"?xt=urn:btih:96fedae465bff7c13f6629822155bbf5b0b5e767&amp;dn=Andy+Griffith+S03E31%281963%29MPEG-4%5BDaScubaDude%5D&amp;tr=udp%3A%2F%2Ftracker.leechers-paradise.org%3A6969&amp;tr=udp%3A%2F%2Fzer0day.ch%3A1337&amp;tr=udp%3A%2F%2Fopen.demonii.com%3A1337&amp;tr=udp%3A%2F%2Ftracker.coppersurfer.tk%3A6969&amp;tr=udp%3A%2F%2Fexodus.desync.com%3A6969","seeders":0,"leechers":0,"uploader":"dascuba","files":1,"time":1453646215,"description":"The Andy Griffith Show (1960–1968)\r\nTV Series  |  30 min  |  Comedy, Family\r\n8.3 Your rating:   -/10   Ratings: 8.3/10 from 7,799 users   \r\nReviews: 54 user | 48 critic\r\nWidower Sheriff Andy and his son Opie live with Andy's Aunt Bee in Mayberry NC. With virtually no crimes to solve, most of Andy's time is spent philosophizing and calming down his cousin Deputy Barney.\r\n\r\nCreators: Sheldon Leonard, Aaron Ruben, Danny Thomas\r\nStars: Andy Griffith, Ron Howard, Don Knotts\r\n\r\nGeneral\r\nComplete name                            :Andy Griffith So3E31ANDY_GRIFFITH_SHOW_S03E31.mp4\r\nFormat                                   : MPEG-4\r\nFormat profile                           : Base Media\r\nCodec ID                                 : isom\r\nFile size                                : 243 MiB\r\nDuration                                 : 25mn 30s\r\nOverall bit rate                         : 1 333 Kbps\r\nMovie name                               : ANDY_GRIFFITH_SHOW_VOL3\r\nGenre                                    : Comedy\r\nWriting application                      : Lavf54.6.100\r\n\r\nVideo\r\nID                                       : 1\r\nFormat                                   : AVC\r\nFormat/Info                              : Advanced Video Codec\r\nFormat profile                           :   \r\nFormat settings, CABAC                   : No\r\nFormat settings, ReFrames                : 6 frames\r\nCodec ID                                 : avc1\r\nCodec ID/Info                            : Advanced Video Coding\r\nDuration                                 : 25mn 30s\r\nBit rate                                 : 1 198 Kbps\r\nWidth                                    : 720 pixels\r\nHeight                                   : 540 pixels\r\nDisplay aspect ratio                     : 4:3\r\nFrame rate mode                          : Constant\r\nFrame rate                               : 29.970 fps\r\nColor space                              : YUV\r\nChroma subsampling                       : 4:2:0\r\nBit depth                                : 8 bits\r\nScan type                                : Progressive\r\nBits/(Pixel*Frame)                       : 0.103\r\nStream size                              : 219 MiB (90%)\r\n\r\nAudio\r\nID                                       : 2\r\nFormat                                   : AAC\r\nFormat/Info                              : Advanced Audio Codec\r\nFormat profile                           : LC\r\nCodec ID                                 : 40\r\nDuration                                 : 25mn 30s\r\nBit rate mode                            : Constant\r\nBit rate                                 : 128 Kbps\r\nChannel(s)                               : 2 channels\r\nChannel positions                        : Front: L R\r\nSampling rate                            : 44.1 KHz\r\nCompression mode                         : Lossy\r\nStream size                              : 23.4 MiB (10%)","torrent":{"xt":"urn:btih:96fedae465bff7c13f6629822155bbf5b0b5e767","amp;dn":"Andy+Griffith+S03E31%281963%29MPEG-4%5BDaScubaDude%5D","amp;tr":["udp%3A%2F%2Ftracker.leechers-paradise.org%3A6969","udp%3A%2F%2Fzer0day.ch%3A1337","udp%3A%2F%2Fopen.demonii.com%3A1337","udp%3A%2F%2Ftracker.coppersurfer.tk%3A6969","udp%3A%2F%2Fexodus.desync.com%3A6969"],"infoHash":"96fedae465bff7c13f6629822155bbf5b0b5e767","infoHashBuffer":{"type":"Buffer","data":[150,254,218,228,101,191,247,193,63,102,41,130,33,85,187,245,176,181,231,103]},"announce":[],"urlList":[]}}